<?xml version="1.0" encoding="UTF-8" standalone="no"?>
<!-- Created with Inkscape (http://www.inkscape.org/) -->

<svg
   width="177.00624mm"
   height="46.77095mm"
   viewBox="0 0 177.00624 46.77095"
   version="1.1"
   id="svg5"
   xml:space="preserve"
   inkscape:version="1.2.1 (9c6d41e410, 2022-07-14)"
   sodipodi:docname="ALLEN Career Institute logo.svg"
   xmlns:inkscape="http://www.inkscape.org/namespaces/inkscape"
   xmlns:sodipodi="http://sodipodi.sourceforge.net/DTD/sodipodi-0.dtd"
   xmlns="http://www.w3.org/2000/svg"
   xmlns:svg="http://www.w3.org/2000/svg"><sodipodi:namedview
     id="namedview7"
     pagecolor="#505050"
     bordercolor="#eeeeee"
     borderopacity="1"
     inkscape:showpageshadow="0"
     inkscape:pageopacity="0"
     inkscape:pagecheckerboard="0"
     inkscape:deskcolor="#505050"
     inkscape:document-units="mm"
     showgrid="false"
     inkscape:zoom="2.8284271"
     inkscape:cx="149.55308"
     inkscape:cy="87.858017"
     inkscape:window-width="1920"
     inkscape:window-height="991"
     inkscape:window-x="-9"
     inkscape:window-y="-9"
     inkscape:window-maximized="1"
     inkscape:current-layer="layer1"
     showguides="true"><sodipodi:guide
       position="137.81483,3.8049304"
       orientation="0,-1"
       id="guide5658"
       inkscape:locked="false" /></sodipodi:namedview><defs
     id="defs2"><inkscape:path-effect
       effect="powerstroke"
       id="path-effect2041"
       is_visible="true"
       lpeversion="1"
       offset_points="0,0.024629838"
       not_jump="false"
       sort_points="true"
       interpolator_type="CubicBezierJohan"
       interpolator_beta="0.2"
       start_linecap_type="zerowidth"
       linejoin_type="extrp_arc"
       miter_limit="4"
       scale_width="1"
       end_linecap_type="zerowidth" /><inkscape:path-effect
       effect="powerstroke"
       id="path-effect1912"
       is_visible="true"
       lpeversion="1"
       offset_points="6.9999944,-0.024629838"
       not_jump="false"
       sort_points="true"
       interpolator_type="CubicBezierJohan"
       interpolator_beta="0.2"
       start_linecap_type="zerowidth"
       linejoin_type="extrp_arc"
       miter_limit="4"
       scale_width="1"
       end_linecap_type="zerowidth" /></defs><g
     inkscape:label="Layer 1"
     inkscape:groupmode="layer"
     id="layer1"
     transform="translate(-177.035,-468.00012)"><path
       style="display:inline;fill:#2957a4;fill-opacity:1;stroke:none;stroke-width:0.264583px;stroke-linecap:butt;stroke-linejoin:miter;stroke-opacity:1"
       d="m 220.06539,472.16284 15.10741,0.0468 0.0935,25.63114 11.78658,0.0468 -2.86344,13.07656 -24.11825,0.002 z"
       id="path4225"
       sodipodi:nodetypes="ccccccc" /><path
       style="fill:#2957a4;fill-opacity:1;stroke:none;stroke-width:0.264583px;stroke-linecap:butt;stroke-linejoin:miter;stroke-opacity:1"
       d="m 250.5732,472.16284 15.10741,0.0468 0.0935,25.63114 11.78658,0.0468 -2.86344,13.07656 -24.11825,0.002 z"
       id="path4225-8"
       sodipodi:nodetypes="ccccccc" /><path
       style="fill:#2957a4;fill-opacity:1;stroke:none;stroke-width:0.264583px;stroke-linecap:butt;stroke-linejoin:miter;stroke-opacity:1"
       d="m 280.81781,472.03014 h 26.12761 l 3.50974,13.21868 -14.70697,-0.005 c -0.61442,0.0484 -0.66443,0.52995 -0.66141,0.82115 0.005,0.52346 0.1852,0.71724 0.63376,0.70579 l 8.92062,0.10177 -0.0584,9.35443 -8.86333,0.0234 c -0.38762,0.0681 -0.48521,0.44428 -0.49899,0.81179 -0.0117,0.31217 0.19166,0.66118 0.45219,0.75508 l 14.82678,0.0702 -3.45475,13.07871 h -26.15792 z"
       id="path5033"
       sodipodi:nodetypes="ccccsccccsccccc" /><path
       style="fill:#2957a4;fill-opacity:1;stroke:none;stroke-width:0.264583px;stroke-linecap:butt;stroke-linejoin:miter;stroke-opacity:1"
       d="m 314.75062,469.98449 0.0992,40.98165 h 15.27235 l 0.0404,-10.37266 17.67078,14.17759 0.0603,-42.57439 -15.21754,-0.11693 -0.0274,10.29657 z"
       id="path5508"
       sodipodi:nodetypes="ccccccccc" /><g
       aria-label="®"
       id="text5564"
       style="font-size:8.60491px;line-height:1.25;stroke-width:0.215124"><path
         d="m 354.04124,473.63565 c 0,-1.35712 -1.07141,-2.42853 -2.42853,-2.42853 h -0.0294 c -1.36133,0 -2.43274,1.07141 -2.43274,2.42853 v 0.0294 c 0,1.36132 1.07141,2.43274 2.43274,2.43274 h 0.0294 c 1.35712,0 2.42853,-1.07142 2.42853,-2.43274 z m -0.5378,0 v 0.0294 c 0,1.06301 -0.83192,1.89493 -1.89073,1.89493 h -0.0294 c -1.06301,0 -1.89493,-0.83192 -1.89493,-1.89493 v -0.0294 c 0,-1.05881 0.83192,-1.89073 1.89493,-1.89073 h 0.0294 c 1.05881,0 1.89073,0.83192 1.89073,1.89073 z m -2.88231,1.26048 h 0.55041 v -0.87393 h 0.44537 l 0.48319,0.87393 h 0.62604 l -0.55041,-0.96637 c 0.29831,-0.11764 0.47058,-0.39495 0.47058,-0.70167 v -0.004 c 0,-0.50839 -0.34033,-0.81511 -0.93696,-0.81511 h -1.08822 z m 0.55041,-1.3025 v -0.71847 h 0.47058 c 0.2689,0 0.43697,0.14285 0.43697,0.35713 v 0.004 c 0,0.21848 -0.15966,0.35713 -0.43277,0.35713 z"
         style="font-family:'SF Pro Text';-inkscape-font-specification:'SF Pro Text'"
         id="path5629" /></g><path
       id="path8870"
       style="fill:#2957a4;fill-opacity:1;stroke-width:0.269494"
       d="m 199.84025,494.69211 a 2.0716336,2.1021161 0 0 1 -2.07163,2.10211 2.0716336,2.1021161 0 0 1 -2.07164,-2.10211 2.0716336,2.1021161 0 0 1 2.07164,-2.10212 2.0716336,2.1021161 0 0 1 2.07163,2.10212 z m -1.96931,-26.69199 -20.83594,42.96528 15.54427,7.4e-4 2.23693,-6.85044 5.88247,0.008 2.46032,6.84244 h 15.34325 z" /></g></svg>
